<svg id="Layer_5" enable-background="new 0 0 64 64" height="512" viewBox="0 0 64 64" width="512" xmlns="http://www.w3.org/2000/svg"><g><g><g><path d="m50 39.8v.4c-4.56.93-8 4.96-8 9.8v2h-38c-1.1 0-2-.9-2-2v-36h50v4c-5.52 0-10 4.48-10 10v2c0 4.84 3.44 8.87 8 9.8z" fill="#e6e9ed"/></g><g><circle cx="21" cy="33" fill="#69d6f4" r="15"/></g><g><path d="m52 4v10h-50v-10c0-1.1.9-2 2-2h46c1.1 0 2 .9 2 2z" fill="#5cd6b3"/></g><g><path d="m22 6h4v4h-4z" fill="#e6e9ed"/></g><g><path d="m14 6h4v4h-4z" fill="#e6e9ed"/></g><g><path d="m6 6h4v4h-4z" fill="#e6e9ed"/></g><g><path d="m54 40.2v4.15 3.65c0 1.1-.9 2-2 2s-2-.9-2-2v-3.65-4.15-.4-4.15-3.65c0-1.1.9-2 2-2 .55 0 1.05.22 1.41.59.37.36.59.86.59 1.41v3.65 4.15z" fill="#ffc729"/></g><g><path d="m62 28v2c0 4.84-3.44 8.87-8 9.8v-4.15c2.33-.82 4-3.04 4-5.65v-2c0-3.31-2.69-6-6-6s-6 2.69-6 6v2c0 2.61 1.67 4.83 4 5.65v4.15c-4.56-.93-8-4.96-8-9.8v-2c0-5.52 4.48-10 10-10s10 4.48 10 10z" fill="#fcd770"/></g><g><path d="m62 50v2c0 5.52-4.48 10-10 10s-10-4.48-10-10v-2c0-4.84 3.44-8.87 8-9.8v4.15c-2.33.82-4 3.04-4 5.65v2c0 3.31 2.69 6 6 6s6-2.69 6-6v-2c0-2.61-1.67-4.83-4-5.65v-4.15c4.56.93 8 4.96 8 9.8z" fill="#fcd770"/></g></g><g><path d="m63 30v-2c0-5.728-4.402-10.442-10-10.949v-13.051c0-1.654-1.346-3-3-3h-46c-1.654 0-3 1.346-3 3v46c0 1.654 1.346 3 3 3h37.051c.507 5.598 5.221 10 10.949 10 6.065 0 11-4.935 11-11v-2c0-4.363-2.6-8.243-6.438-10 3.838-1.757 6.438-5.637 6.438-10zm-59-27h46c.552 0 1 .449 1 1v9h-48v-9c0-.551.448-1 1-1zm-1 47v-35h48v2.051c-5.598.507-10 5.221-10 10.949v2c0 4.363 2.6 8.243 6.438 10-3.838 1.757-6.438 5.637-6.438 10v1h-37c-.552 0-1-.449-1-1zm49 1c1.654 0 3-1.346 3-3v-1.99c1.234.928 2 2.396 2 3.99v2c0 2.757-2.243 5-5 5s-5-2.243-5-5v-2c0-1.594.766-3.062 2-3.99v1.99c0 1.654 1.346 3 3 3zm-1-3v-16c0-.551.448-1 1-1s1 .449 1 1v16c0 .551-.448 1-1 1s-1-.449-1-1zm1-19c-1.654 0-3 1.346-3 3v1.99c-1.234-.928-2-2.396-2-3.99v-2c0-2.757 2.243-5 5-5s5 2.243 5 5v2c0 1.594-.766 3.062-2 3.99v-1.99c0-1.654-1.346-3-3-3zm9 21v2c0 4.962-4.037 9-9 9s-9-4.038-9-9v-2c0-3.841 2.462-7.225 6-8.479v2.181c-2.413 1.151-4 3.587-4 6.298v2c0 3.86 3.141 7 7 7s7-3.14 7-7v-2c0-2.71-1.587-5.147-4-6.298v-2.181c3.538 1.254 6 4.638 6 8.479zm-6-11.521v-2.181c2.413-1.151 4-3.587 4-6.298v-2c0-3.86-3.141-7-7-7s-7 3.14-7 7v2c0 2.71 1.587 5.147 4 6.298v2.181c-3.538-1.253-6-4.637-6-8.479v-2c0-4.962 4.037-9 9-9s9 4.038 9 9v2c0 3.841-2.462 7.225-6 8.479z"/><path d="m11 5h-6v6h6zm-2 4h-2v-2h2z"/><path d="m19 5h-6v6h6zm-2 4h-2v-2h2z"/><path d="m27 5h-6v6h6zm-2 4h-2v-2h2z"/><path d="m21 17c-8.822 0-16 7.178-16 16s7.178 16 16 16 16-7.178 16-16-7.178-16-16-16zm0 30c-.941 0-2.125-1.823-2.961-5h5.921c-.835 3.177-2.019 5-2.96 5zm-3.406-7c-.318-1.732-.526-3.753-.576-6h7.966c-.05 2.247-.259 4.268-.576 6zm-10.543-6h7.966c.045 2.065.226 4.111.546 6h-6.669c-1.039-1.789-1.689-3.825-1.843-6zm13.949-15c.941 0 2.125 1.823 2.961 5h-5.921c.835-3.177 2.019-5 2.96-5zm3.406 7c.318 1.732.526 3.753.576 6h-7.966c.05-2.247.259-4.268.576-6zm-9.39 6h-7.965c.155-2.175.805-4.211 1.844-6h6.667c-.319 1.889-.501 3.935-.546 6zm11.968 2h7.966c-.155 2.175-.805 4.211-1.844 6h-6.667c.318-1.889.5-3.935.545-6zm0-2c-.045-2.065-.226-4.111-.546-6h6.667c1.039 1.789 1.689 3.825 1.844 6zm4.724-8h-5.677c-.431-1.81-1.006-3.388-1.72-4.588 2.934.716 5.511 2.347 7.397 4.588zm-14.019-4.588c-.714 1.2-1.289 2.778-1.72 4.588h-5.677c1.886-2.241 4.463-3.872 7.397-4.588zm-7.397 22.588h5.677c.431 1.81 1.006 3.388 1.72 4.588-2.934-.716-5.511-2.347-7.397-4.588zm14.019 4.588c.714-1.2 1.289-2.778 1.72-4.588h5.677c-1.886 2.241-4.463 3.872-7.397 4.588z"/></g></g></svg>